<svg xmlns="http://www.w3.org/2000/svg" viewBox="0 0 512 512" width="512" height="512">
  <!-- Puna pozadina za maskable (safe zone = centralni 80%) -->
  <rect width="512" height="512" fill="#1a1a2e"/>
  <!-- Pergola krov (pomeren prema centru za safe zone) -->
  <rect x="90" y="130" width="332" height="18" rx="9" fill="#e94560"/>
  <rect x="118" y="158" width="11" height="80" rx="5" fill="#e94560" opacity="0.6"/>
  <rect x="152" y="158" width="11" height="80" rx="5" fill="#e94560" opacity="0.6"/>
  <rect x="186" y="158" width="11" height="80" rx="5" fill="#e94560" opacity="0.6"/>
  <rect x="220" y="158" width="11" height="80" rx="5" fill="#e94560" opacity="0.6"/>
  <rect x="254" y="158" width="11" height="80" rx="5" fill="#e94560" opacity="0.6"/>
  <rect x="288" y="158" width="11" height="80" rx="5" fill="#e94560" opacity="0.6"/>
  <rect x="322" y="158" width="11" height="80" rx="5" fill="#e94560" opacity="0.6"/>
  <rect x="356" y="158" width="11" height="80" rx="5" fill="#e94560" opacity="0.6"/>
  <!-- Stubovi -->
  <rect x="96" y="232" width="22" height="130" rx="6" fill="#3b82f6"/>
  <rect x="394" y="232" width="22" height="130" rx="6" fill="#3b82f6"/>
  <!-- BoÄna greda -->
  <rect x="90" y="228" width="332" height="16" rx="6" fill="#16213e" stroke="#3b82f6" stroke-width="2"/>
  <!-- AG tekst -->
  <text x="256" y="340" font-family="'Segoe UI', Arial, sans-serif" font-size="76" font-weight="800" fill="white" text-anchor="middle" letter-spacing="4">AG</text>
  <rect x="164" y="352" width="184" height="6" rx="3" fill="#e94560"/>
  <text x="256" y="396" font-family="'Segoe UI', Arial, sans-serif" font-size="20" font-weight="700" fill="#6b7280" text-anchor="middle" letter-spacing="3">PROHORECA</text>
</svg>
