<svg xmlns="http://www.w3.org/2000/svg" viewBox="0 0 192 192" width="192" height="192">
  <rect width="192" height="192" rx="32" fill="#1a1a2e"/>
  <!-- Pergola krov - horizontalne letve -->
  <rect x="24" y="44" width="144" height="8" rx="4" fill="#e94560"/>
  <rect x="36" y="58" width="5" height="36" rx="2" fill="#e94560" opacity="0.6"/>
  <rect x="52" y="58" width="5" height="36" rx="2" fill="#e94560" opacity="0.6"/>
  <rect x="68" y="58" width="5" height="36" rx="2" fill="#e94560" opacity="0.6"/>
  <rect x="84" y="58" width="5" height="36" rx="2" fill="#e94560" opacity="0.6"/>
  <rect x="100" y="58" width="5" height="36" rx="2" fill="#e94560" opacity="0.6"/>
  <rect x="116" y="58" width="5" height="36" rx="2" fill="#e94560" opacity="0.6"/>
  <rect x="132" y="58" width="5" height="36" rx="2" fill="#e94560" opacity="0.6"/>
  <rect x="148" y="58" width="5" height="36" rx="2" fill="#e94560" opacity="0.6"/>
  <!-- Stubovi -->
  <rect x="28" y="88" width="10" height="60" rx="3" fill="#3b82f6"/>
  <rect x="154" y="88" width="10" height="60" rx="3" fill="#3b82f6"/>
  <!-- BoÄna greda -->
  <rect x="24" y="88" width="144" height="7" rx="3" fill="#16213e" stroke="#3b82f6" stroke-width="1"/>
  <!-- AG tekst -->
  <text x="96" y="134" font-family="'Segoe UI', Arial, sans-serif" font-size="28" font-weight="800" fill="white" text-anchor="middle" letter-spacing="2">AG</text>
  <!-- Linija ispod -->
  <rect x="60" y="140" width="72" height="3" rx="1.5" fill="#e94560"/>
  <!-- PROHORECA tekst -->
  <text x="96" y="162" font-family="'Segoe UI', Arial, sans-serif" font-size="9" font-weight="600" fill="#6b7280" text-anchor="middle" letter-spacing="1">PROHORECA</text>
</svg>
